<svg xmlns="http://www.w3.org/2000/svg" viewBox="0 0 512 512" fill="white">
  <path d="M476.2 151.6c-2.2 49.6-36.7 117.6-102.9 203.8-68.6 90.2-126.6 135.4-173.9 135.4-29.4 0-54.3-27.1-74.9-81.3-13.6-49.6-27.1-99.2-40.8-148.9-15.1-54.8-31.2-82.2-48.2-82.2-3.7 0-16.6 7.9-38.7 23.9L0 174.3c24.1-21.4 47.9-42.8 71.5-64.2 32.3-27.9 56.6-42.7 72.9-44.3 38.3-3.7 61.8 22.6 70.6 78.8 9.6 61.8 16.2 100.4 19.8 116.1 11.1 50.4 23.3 75.5 36.4 75.5 10.3 0 25.8-16.2 46.7-48.5 20.8-32.3 32-56.7 33.5-72.9 3-27.6-8-41.4-33.5-41.4-11.9 0-24.2 2.7-36.9 8.2 24.5-80.3 71.3-119.1 140.4-116.5 51.4 1.5 75.8 34.9 73.4 99.2z"/>
</svg>